<svg width="33" height="33" viewBox="0 0 33 33" fill="none" xmlns="http://www.w3.org/2000/svg">
<g clip-path="url(#clip0_7_15)">
<path fill-rule="evenodd" clip-rule="evenodd" d="M16.4508 0C7.35395 0 0 7.5625 0 16.9183C0 24.397 4.71193 30.7275 11.2486 32.968C12.0659 33.1365 12.3652 32.604 12.3652 32.1561C12.3652 31.7639 12.3383 30.4195 12.3383 29.0187C7.76207 30.0273 6.80911 27.0019 6.80911 27.0019C6.07368 25.0412 4.98401 24.5372 4.98401 24.5372C3.48621 23.5008 5.09311 23.5008 5.09311 23.5008C6.75456 23.6129 7.62637 25.2374 7.62637 25.2374C9.09689 27.8142 11.4665 27.0861 12.4198 26.6379C12.5558 25.5454 12.9919 24.7892 13.4549 24.3691C9.80504 23.9769 5.96492 22.5204 5.96492 16.0218C5.96492 14.1732 6.61818 12.6607 7.65331 11.4843C7.48999 11.0643 6.91788 9.32731 7.81696 7.00253C7.81696 7.00253 9.20599 6.55428 12.338 8.73916C13.6789 8.36882 15.0617 8.18043 16.4508 8.17884C17.8399 8.17884 19.2558 8.37512 20.5634 8.73916C23.6957 6.55428 25.0847 7.00253 25.0847 7.00253C25.9838 9.32731 25.4113 11.0643 25.248 11.4843C26.3104 12.6607 26.9368 14.1732 26.9368 16.0218C26.9368 22.5204 23.0966 23.9487 19.4195 24.3691C20.0189 24.9012 20.5361 25.9095 20.5361 27.5062C20.5361 29.7749 20.5092 31.5958 20.5092 32.1558C20.5092 32.604 20.8089 33.1365 21.6258 32.9684C28.1625 30.7271 32.8744 24.397 32.8744 16.9183C32.9013 7.5625 25.5205 0 16.4508 0Z" fill="#FFE5D4"/>
</g>
<defs>
<clipPath id="clip0_7_15">
<rect width="33" height="33" fill="white"/>
</clipPath>
</defs>
</svg>
