<svg width="34" height="34" viewBox="0 0 34 34" fill="none" xmlns="http://www.w3.org/2000/svg">
<path fill-rule="evenodd" clip-rule="evenodd" d="M34 17C34 26.3888 26.3888 34 17 34C7.61116 34 0 26.3888 0 17C0 7.61116 7.61116 0 17 0C26.3888 0 34 7.61116 34 17ZM24.1211 24.0413H21.1438V19.4004C21.1438 18.2937 21.1239 16.8691 19.5952 16.8691C18.0446 16.8691 17.8073 18.0749 17.8073 19.3199V24.041H14.83V14.4974H17.6882V15.8017H17.7282C18.0143 15.3148 18.4276 14.9144 18.9242 14.6429C19.4208 14.3714 19.9821 14.2391 20.5483 14.26C23.5659 14.26 24.1223 16.2357 24.1223 18.8059L24.1211 24.0413ZM11.4706 13.1929C11.1289 13.1929 10.7948 13.0921 10.5107 12.9032C10.2265 12.7143 10.005 12.4457 9.87417 12.1315C9.74334 11.8173 9.70907 11.4715 9.77567 11.1379C9.84228 10.8043 10.0068 10.4979 10.2484 10.2573C10.49 10.0167 10.7978 9.8529 11.1329 9.78649C11.4681 9.72007 11.8155 9.75406 12.1312 9.88417C12.4469 10.0143 12.7168 10.2347 12.9067 10.5174C13.0966 10.8002 13.198 11.1327 13.1981 11.4728C13.1981 11.6987 13.1535 11.9223 13.0667 12.131C12.9799 12.3396 12.8526 12.5292 12.6922 12.6889C12.5318 12.8487 12.3414 12.9754 12.1318 13.0618C11.9222 13.1483 11.6975 13.1928 11.4706 13.1929ZM12.9593 24.0413H9.97886V14.4974H12.9593V24.0413ZM25.6054 7.00136H8.48276C8.09413 6.997 7.71965 7.14639 7.44162 7.4167C7.16358 7.68702 7.00474 8.05614 7 8.44297V25.5567C7.00458 25.9437 7.16332 26.3131 7.44134 26.5837C7.71936 26.8543 8.09393 27.004 8.48276 26.9999H25.6054C25.995 27.0047 26.3706 26.8555 26.6497 26.5849C26.9288 26.3143 27.0886 25.9445 27.094 25.5567V8.44173C27.0885 8.05414 26.9286 7.6846 26.6494 7.41429C26.3703 7.14398 25.9948 6.99502 25.6054 7.00013V7.00136Z" fill="#FFE5D4"/>
</svg>
