<svg width="34" height="34" viewBox="0 0 34 34" fill="none" xmlns="http://www.w3.org/2000/svg">
<path fill-rule="evenodd" clip-rule="evenodd" d="M17 34C26.3888 34 34 26.3888 34 17C34 7.61116 26.3888 0 17 0C7.61116 0 0 7.61116 0 17C0 26.3888 7.61116 34 17 34ZM25.4082 10.8872C26.3218 10.7777 27.1909 10.5355 28 10.177L27.998 10.1799C27.3944 11.0839 26.629 11.8774 25.7473 12.5149C25.756 12.7087 25.7609 12.9045 25.7609 13.0982C25.7609 19.0628 21.2215 25.9401 12.918 25.9401C10.3698 25.9401 7.99791 25.1941 6 23.9121C6.35365 23.9538 6.71312 23.9751 7.07743 23.9751C9.1916 23.9751 11.1381 23.2533 12.6835 22.0422C10.708 22.0073 9.04142 20.7012 8.46687 18.9088C8.74698 18.9618 9.03147 18.9884 9.31657 18.9882C9.71805 18.9886 10.1178 18.9358 10.5054 18.8312C8.43972 18.4165 6.88462 16.5921 6.88462 14.4053V14.3471C7.51138 14.6955 8.21228 14.8892 8.929 14.912C7.71888 14.103 6.92143 12.7203 6.92143 11.1546C6.92143 10.3291 7.14432 9.55396 7.53184 8.88542C9.75838 11.6158 13.0827 13.4131 16.8353 13.6021C16.7581 13.2652 16.7191 12.9206 16.719 12.575C16.719 10.081 18.7401 8.05992 21.2322 8.05992C22.5305 8.05992 23.7029 8.60833 24.5265 9.48418C25.5545 9.28265 26.5205 8.90674 27.3925 8.38932C27.0553 9.44349 26.3402 10.3291 25.4082 10.8872Z" fill= "#FFE5D4"/>
</svg>
