<svg width="28" height="29" viewBox="0 0 28 29" fill="none" xmlns="http://www.w3.org/2000/svg">
<path d="M22 0.5H6C2.69 0.5 0 3.19 0 6.5V8.1H28V6.5C28 3.19 25.31 0.5 22 0.5ZM5.535 5.65H5.043C4.546 5.65 4.143 5.247 4.143 4.75C4.143 4.253 4.546 3.85 5.043 3.85H5.535C6.032 3.85 6.435 4.253 6.435 4.75C6.435 5.247 6.032 5.65 5.535 5.65ZM9.41 5.65H8.918C8.421 5.65 8.018 5.247 8.018 4.75C8.018 4.253 8.421 3.85 8.918 3.85H9.41C9.907 3.85 10.31 4.253 10.31 4.75C10.31 5.247 9.907 5.65 9.41 5.65ZM22.957 5.65H14.665C14.168 5.65 13.765 5.247 13.765 4.75C13.765 4.253 14.168 3.85 14.665 3.85H22.957C23.454 3.85 23.857 4.253 23.857 4.75C23.857 5.247 23.454 5.65 22.957 5.65Z" fill="black"/>
<path d="M0 9.89999V22.5C0 25.81 2.69 28.5 6 28.5H22C25.31 28.5 28 25.81 28 22.5V9.89999H0ZM6.181 13.6H14C14.497 13.6 14.9 14.003 14.9 14.5C14.9 14.997 14.497 15.4 14 15.4H6.181C5.684 15.4 5.281 14.997 5.281 14.5C5.281 14.003 5.684 13.6 6.181 13.6ZM21.819 23.9H6.181C5.684 23.9 5.281 23.497 5.281 23C5.281 22.503 5.684 22.1 6.181 22.1H21.82C22.317 22.1 22.72 22.503 22.72 23C22.72 23.497 22.316 23.9 21.819 23.9ZM21.819 19.65H6.181C5.684 19.65 5.281 19.247 5.281 18.75C5.281 18.253 5.684 17.85 6.181 17.85H21.82C22.317 17.85 22.72 18.253 22.72 18.75C22.72 19.247 22.316 19.65 21.819 19.65Z" fill="black"/>
</svg>
