<svg width="42" height="42" viewBox="0 0 42 42" fill="none" xmlns="http://www.w3.org/2000/svg">
<path fill-rule="evenodd" clip-rule="evenodd" d="M16.0001 41C16.0001 41.265 15.8951 41.52 15.7071 41.707C15.5201 41.895 15.2651 42 15.0001 42C12.6551 42 7.00012 42 7.00012 42C5.34312 42 4.00012 40.657 4.00012 39C4.00012 33.697 4.00012 25 4.00012 25C4.00012 24.448 3.55212 24 3.00012 24C1.78712 24 0.693123 23.269 0.228123 22.148C-0.235877 21.027 0.0211241 19.737 0.879124 18.879L18.8791 0.879C20.0501 -0.293 21.9501 -0.293 23.1211 0.879L41.1211 18.879C41.9791 19.737 42.2361 21.027 41.7721 22.148C41.3071 23.269 40.2131 24 39.0001 24C38.4481 24 38.0001 24.448 38.0001 25C38.0001 25 38.0001 33.697 38.0001 39C38.0001 40.657 36.6571 42 35.0001 42C35.0001 42 29.3451 42 27.0001 42C26.4481 42 26.0001 41.552 26.0001 41C26.0001 38.423 26.0001 31.577 26.0001 29C26.0001 28.448 25.5521 28 25.0001 28C23.0841 28 18.9161 28 17.0001 28C16.4481 28 16.0001 28.448 16.0001 29C16.0001 31.577 16.0001 38.423 16.0001 41Z" fill="#F3F7F0"/>
</svg>
