<svg width="41" height="42" viewBox="0 0 41 42" fill="none" xmlns="http://www.w3.org/2000/svg">
<path fill-rule="evenodd" clip-rule="evenodd" d="M40.1192 21.1105C40.1192 20.315 39.802 19.5518 39.2398 18.9891C38.6776 18.4264 37.9139 18.1107 37.1188 18.1107H14.9259C14.6591 18.1107 14.4032 18.0046 14.2153 17.8158C14.0288 17.6269 13.924 17.3708 13.9253 17.1043L13.9566 12.0749C13.9621 11.2754 13.649 10.5083 13.0854 9.94046C12.5218 9.37387 11.7567 9.05566 10.9576 9.05566H3.00041C1.34363 9.05566 0 10.3984 0 12.0555V39.0007C0 40.6578 1.34363 42.0006 3.00041 42.0006C9.58395 42.0006 30.5353 42.0006 37.1188 42.0006C37.9139 42.0006 38.6776 41.6849 39.2398 41.1222C39.802 40.5595 40.1192 39.7963 40.1192 39.0007V21.1105ZM38.1181 21.1105V39.0007C38.1181 39.2659 38.0132 39.5208 37.8254 39.7083C37.6388 39.8959 37.3843 40.0007 37.1188 40.0007C30.5353 40.0007 9.58395 40.0007 3.00041 40.0007C2.4477 40.0007 2.00116 39.5531 2.00116 39.0007V12.0555C2.00116 11.5031 2.4477 11.0555 3.00041 11.0555H10.9576C11.223 11.0555 11.479 11.1616 11.6668 11.3505C11.8547 11.5393 11.9595 11.7955 11.9568 12.0619L11.9255 17.0914C11.92 17.8908 12.2345 18.6579 12.7968 19.2258C13.3604 19.7924 14.1268 20.1106 14.9246 20.1106H37.1188C37.3843 20.1106 37.6388 20.2154 37.8254 20.4029C38.0132 20.5905 38.1181 20.8454 38.1181 21.1105Z" fill="black"/>
<path fill-rule="evenodd" clip-rule="evenodd" d="M4.95292 15.5821H9.4374C9.98899 15.5821 10.4374 15.135 10.4374 14.5827C10.4374 14.0303 9.98899 13.5832 9.4374 13.5832H4.95292C4.40133 13.5832 3.95288 14.0303 3.95288 14.5827C3.95288 15.135 4.40133 15.5821 4.95292 15.5821Z" fill="black"/>
<path fill-rule="evenodd" clip-rule="evenodd" d="M2.24274 9.151C0.952737 9.487 0.000732422 10.66 0.000732422 12.055V39C0.000732422 40.657 1.34373 42 3.00073 42C9.58373 42 30.5347 42 37.1187 42C37.9137 42 38.6767 41.684 39.2397 41.121C39.8027 40.559 40.1187 39.796 40.1187 39V21.11C40.1187 20.314 39.8027 19.551 39.2397 18.989C39.1627 18.911 39.0817 18.839 38.9967 18.771V9.791C38.9967 8.996 38.6807 8.232 38.1187 7.67C37.5557 7.107 36.7927 6.791 35.9967 6.791H33.7077V3C33.7077 2.204 33.3917 1.441 32.8287 0.878998C32.2667 0.315998 31.5037 0 30.7077 0C25.3327 0 10.6177 0 5.24274 0C4.44674 0 3.68373 0.315998 3.12073 0.878998C2.55873 1.441 2.24274 2.204 2.24274 3V9.151ZM14.9247 20.11H37.1187C37.3837 20.11 37.6377 20.215 37.8257 20.403C38.0127 20.59 38.1187 20.845 38.1187 21.11V39C38.1187 39.265 38.0127 39.519 37.8257 39.707C37.6377 39.895 37.3837 40 37.1187 40C30.5347 40 9.58373 40 3.00073 40C2.44773 40 2.00073 39.552 2.00073 39V12.055C2.00073 11.503 2.44773 11.055 3.00073 11.055H10.9567C11.2237 11.055 11.4787 11.161 11.6667 11.35C11.8537 11.539 11.9587 11.795 11.9567 12.061L11.9247 17.091C11.9197 17.89 12.2337 18.658 12.7967 19.225C13.3597 19.791 14.1257 20.11 14.9247 20.11ZM33.7077 8.791V18.11H36.9967V9.791C36.9967 9.526 36.8917 9.272 36.7047 9.084C36.5167 8.897 36.2627 8.791 35.9967 8.791H33.7077ZM13.9477 13.582L13.9347 15.582H26.7857C27.3377 15.582 27.7857 15.134 27.7857 14.582C27.7857 14.031 27.3377 13.582 26.7857 13.582H13.9477ZM11.0407 9.056C11.8097 9.078 12.5417 9.394 13.0847 9.94C13.4007 10.259 13.6387 10.64 13.7857 11.055H26.7857C27.3377 11.055 27.7857 10.607 27.7857 10.055C27.7857 9.50299 27.3377 9.05499 26.7857 9.05499H11.0907C11.0737 9.05499 11.0577 9.055 11.0407 9.056ZM8.81873 6.52699H26.7857C27.3377 6.52699 27.7857 6.07899 27.7857 5.52699C27.7857 4.97599 27.3377 4.52699 26.7857 4.52699H8.81873C8.26673 4.52699 7.81873 4.97599 7.81873 5.52699C7.81873 6.07899 8.26673 6.52699 8.81873 6.52699Z" fill="black"/>
</svg>
