<svg width="60" height="53" viewBox="0 0 60 53" fill="none" xmlns="http://www.w3.org/2000/svg">
<path d="M60 5.5V39.5C59.9995 40.8259 59.4726 42.0974 58.535 43.035C57.5974 43.9726 56.3259 44.4995 55 44.5H54V20.5C53.998 18.6441 53.2598 16.8648 51.9475 15.5525C50.6352 14.2402 48.8559 13.502 47 13.5H30.66C30.3943 13.5008 30.1391 13.3966 29.95 13.21L25.29 8.54C24.6396 7.8911 23.8677 7.37689 23.0182 7.02683C22.1688 6.67677 21.2587 6.49774 20.34 6.5H5C4.66493 6.4964 4.33023 6.52318 4 6.58V5.5C4.00048 4.17406 4.52742 2.90257 5.465 1.965C6.40257 1.02742 7.67406 0.50048 9 0.5H55C56.3259 0.50048 57.5974 1.02742 58.535 1.965C59.4726 2.90257 59.9995 4.17406 60 5.5Z" fill="black"/>
<path d="M47 15.5H30.66C30.2658 15.5021 29.8752 15.4253 29.5111 15.2742C29.147 15.1231 28.8168 14.9006 28.54 14.62L23.88 9.96C23.415 9.49569 22.863 9.12773 22.2555 8.87719C21.648 8.62665 20.9971 8.49847 20.34 8.5H5C3.67406 8.50048 2.40257 9.02742 1.465 9.96499C0.527418 10.9026 0.000479728 12.1741 0 13.5V47.5C0.000479728 48.8259 0.527418 50.0974 1.465 51.035C2.40257 51.9726 3.67406 52.4995 5 52.5H47C48.3259 52.4995 49.5974 51.9726 50.535 51.035C51.4726 50.0974 51.9995 48.8259 52 47.5V20.5C51.9995 19.1741 51.4726 17.9026 50.535 16.965C49.5974 16.0274 48.3259 15.5005 47 15.5ZM46 43.5C45.9977 44.2949 45.6809 45.0566 45.1187 45.6187C44.5566 46.1809 43.7949 46.4977 43 46.5H41C40.2051 46.4977 39.4434 46.1809 38.8813 45.6187C38.3191 45.0566 38.0023 44.2949 38 43.5V41.5C38.0023 40.7051 38.3191 39.9433 38.8812 39.3812C39.4433 38.8191 40.2051 38.5023 41 38.5H43C43.7949 38.5023 44.5567 38.8191 45.1188 39.3812C45.6809 39.9433 45.9977 40.7051 46 41.5V43.5ZM46 33.5C45.9977 34.2949 45.6809 35.0566 45.1187 35.6187C44.5566 36.1809 43.7949 36.4977 43 36.5H39C38.2051 36.4977 37.4434 36.1809 36.8813 35.6187C36.3191 35.0566 36.0023 34.2949 36 33.5V31.5C36.0023 30.7051 36.3191 29.9433 36.8812 29.3812C37.4433 28.8191 38.2051 28.5023 39 28.5H43C43.7949 28.5023 44.5567 28.8191 45.1188 29.3812C45.6809 29.9433 45.9977 30.7051 46 31.5V33.5ZM44 26.5H32C31.2044 26.5 30.4413 26.1839 29.8787 25.6213C29.3161 25.0587 29 24.2956 29 23.5C29 22.7043 29.3161 21.9413 29.8787 21.3787C30.4413 20.8161 31.2044 20.5 32 20.5H44C44.7956 20.5 45.5587 20.8161 46.1213 21.3787C46.6839 21.9413 47 22.7043 47 23.5C47 24.2956 46.6839 25.0587 46.1213 25.6213C45.5587 26.1839 44.7956 26.5 44 26.5Z" fill="black"/>
<path d="M44 22.5H32C31.7348 22.5 31.4804 22.6054 31.2929 22.7929C31.1054 22.9804 31 23.2348 31 23.5C31 23.7652 31.1054 24.0196 31.2929 24.2071C31.4804 24.3946 31.7348 24.5 32 24.5H44C44.2652 24.5 44.5196 24.3946 44.7071 24.2071C44.8946 24.0196 45 23.7652 45 23.5C45 23.2348 44.8946 22.9804 44.7071 22.7929C44.5196 22.6054 44.2652 22.5 44 22.5Z" fill="black"/>
<path d="M43 30.5H39C38.4477 30.5 38 30.9477 38 31.5V33.5C38 34.0523 38.4477 34.5 39 34.5H43C43.5523 34.5 44 34.0523 44 33.5V31.5C44 30.9477 43.5523 30.5 43 30.5Z" fill="black"/>
<path d="M43 40.5H41C40.4477 40.5 40 40.9477 40 41.5V43.5C40 44.0523 40.4477 44.5 41 44.5H43C43.5523 44.5 44 44.0523 44 43.5V41.5C44 40.9477 43.5523 40.5 43 40.5Z" fill="black"/>
</svg>
