<svg width="66" height="87" viewBox="0 0 66 87" fill="none" xmlns="http://www.w3.org/2000/svg">
<path d="M0 0.5V86.5H66V16.5H52C50.9163 16.489 50.01 15.4745 50 14.5V0.5H0ZM54 2.5V12.5H64L54 2.5ZM20 18.5C22.2091 18.5 24 20.2909 24 22.5C24 24.7092 22.2091 26.5 20 26.5C17.7909 26.5 16 24.7092 16 22.5C16 20.2909 17.7909 18.5 20 18.5ZM35 26.5H54C55.1046 26.5 56 27.3954 56 28.5C56 29.6046 55.1046 30.5 54 30.5H35C33.8954 30.5 33 29.6046 33 28.5C33 27.3954 33.8954 26.5 35 26.5ZM20 27.5C23.6923 27.5 28 28.9 28 34.5H12C12 28.9 16.3077 27.5 20 27.5ZM12 40.5H54C55.1046 40.5 56 41.3954 56 42.5C56 43.6046 55.1046 44.5 54 44.5H12C10.8954 44.5 10 43.6046 10 42.5C10 41.3954 10.8954 40.5 12 40.5ZM12 54.5H54C55.1046 54.5 56 55.3954 56 56.5C56 57.6046 55.1046 58.5 54 58.5H12C10.8954 58.5 10 57.6046 10 56.5C10 55.3954 10.8954 54.5 12 54.5ZM12 68.5H54C55.1046 68.5 56 69.3954 56 70.5C56 71.6046 55.1046 72.5 54 72.5H12C10.8954 72.5 10 71.6046 10 70.5C10 69.3954 10.8954 68.5 12 68.5Z" fill="black"/>
</svg>
